G04 #@! TF.FileFunction,Copper,L1,Top,Signal*
%FSLAX46Y46*%
G04 Gerber Fmt 4.6, Leading zero omitted, Abs format (unit mm)*
G04 Created by KiCad (PCBNEW 4.0.6) date 11/10/17 20:31:32*
%MOMM*%
%LPD*%
G01*
G04 APERTURE LIST*
%ADD10C,0.100000*%
%ADD11R,1.700000X1.700000*%
%ADD12O,1.700000X1.700000*%
%ADD13O,1.000000X1.100000*%
%ADD14O,1.000000X1.000000*%
%ADD15C,2.000000*%
%ADD16R,1.550000X0.600000*%
%ADD17R,0.750000X1.200000*%
%ADD18R,0.900000X1.200000*%
%ADD19R,1.200000X0.900000*%
%ADD20C,1.000000*%
%ADD21C,0.400000*%
%ADD22C,0.254000*%
G04 APERTURE END LIST*
D10*
D11*
X126905000Y-106760000D03*
D12*
X129445000Y-106760000D03*
X131985000Y-106760000D03*
X134525000Y-106760000D03*
X137065000Y-106760000D03*
D13*
X127286000Y-117428000D03*
D14*
X127286000Y-116158000D03*
D13*
X125889000Y-117428000D03*
D14*
X125889000Y-116158000D03*
D15*
X135795000Y-120095000D03*
X133255000Y-120095000D03*
X130715000Y-120095000D03*
X128175000Y-120095000D03*
D16*
X129285000Y-110570000D03*
X129285000Y-111840000D03*
X129285000Y-113110000D03*
X129285000Y-114380000D03*
X134685000Y-114380000D03*
X134685000Y-113110000D03*
X134685000Y-111840000D03*
X134685000Y-110570000D03*
D17*
X137065000Y-110890000D03*
X137065000Y-112790000D03*
D18*
X127286000Y-110613000D03*
X127286000Y-112813000D03*
X125889000Y-110613000D03*
X125889000Y-112813000D03*
D19*
X135330000Y-99140000D03*
X137530000Y-99140000D03*
X126440000Y-99140000D03*
X128640000Y-99140000D03*
D20*
X134525000Y-116920000D03*
X131985000Y-113110000D03*
X133890000Y-109300000D03*
X135795000Y-104855000D03*
D21*
X137065000Y-116285000D02*
X137065000Y-112790000D01*
X136430000Y-116920000D02*
X137065000Y-116285000D01*
X134525000Y-116920000D02*
X136430000Y-116920000D01*
X134685000Y-111840000D02*
X136115000Y-111840000D01*
X136115000Y-111840000D02*
X137065000Y-112790000D01*
X133255000Y-120095000D02*
X133255000Y-110380000D01*
X133255000Y-110380000D02*
X132080000Y-109205000D01*
X137530000Y-99140000D02*
X137530000Y-102485000D01*
X137530000Y-102485000D02*
X136430000Y-103585000D01*
X129285000Y-110570000D02*
X130715000Y-110570000D01*
X130715000Y-110570000D02*
X132080000Y-109205000D01*
X132080000Y-104760000D02*
X132080000Y-107000000D01*
X133255000Y-103585000D02*
X132080000Y-104760000D01*
X136430000Y-103585000D02*
X133255000Y-103585000D01*
X132080000Y-109205000D02*
X132080000Y-107000000D01*
X131985000Y-113110000D02*
X131985000Y-115650000D01*
X130715000Y-116920000D02*
X130715000Y-120095000D01*
X131985000Y-115650000D02*
X130715000Y-116920000D01*
X129285000Y-111840000D02*
X130715000Y-111840000D01*
X130715000Y-111840000D02*
X131985000Y-113110000D01*
X128640000Y-99140000D02*
X128810000Y-99140000D01*
X128810000Y-99140000D02*
X129540000Y-99870000D01*
X129540000Y-99870000D02*
X129540000Y-107000000D01*
X127286000Y-116158000D02*
X130080000Y-116158000D01*
X130334000Y-113237000D02*
X129412000Y-113237000D01*
X130715000Y-113618000D02*
X130334000Y-113237000D01*
X130715000Y-115523000D02*
X130715000Y-113618000D01*
X130080000Y-116158000D02*
X130715000Y-115523000D01*
X129412000Y-113237000D02*
X129285000Y-113110000D01*
X127286000Y-112813000D02*
X127286000Y-112856000D01*
X127286000Y-112856000D02*
X127540000Y-113110000D01*
X127540000Y-113110000D02*
X129285000Y-113110000D01*
X125889000Y-116158000D02*
X125889000Y-115396000D01*
X125889000Y-115396000D02*
X126905000Y-114380000D01*
X125889000Y-112813000D02*
X125889000Y-113364000D01*
X125889000Y-113364000D02*
X126905000Y-114380000D01*
X126905000Y-114380000D02*
X129285000Y-114380000D01*
X127286000Y-110613000D02*
X127286000Y-110316000D01*
X127286000Y-110316000D02*
X126905000Y-109935000D01*
X127286000Y-110613000D02*
X125889000Y-110613000D01*
X126905000Y-106760000D02*
X126905000Y-109597000D01*
X126905000Y-109597000D02*
X125889000Y-110613000D01*
X134685000Y-110570000D02*
X134685000Y-110095000D01*
X134685000Y-110095000D02*
X133890000Y-109300000D01*
X126905000Y-106760000D02*
X126905000Y-102315000D01*
X126440000Y-101850000D02*
X126440000Y-99140000D01*
X126905000Y-102315000D02*
X126440000Y-101850000D01*
X135795000Y-109935000D02*
X135795000Y-104855000D01*
X135795000Y-109935000D02*
X135160000Y-110570000D01*
X134685000Y-110570000D02*
X135160000Y-110570000D01*
X134685000Y-110570000D02*
X134685000Y-110537000D01*
X134685000Y-110570000D02*
X136745000Y-110570000D01*
X136745000Y-110570000D02*
X137065000Y-110890000D01*
X135330000Y-99140000D02*
X135160000Y-99140000D01*
X135160000Y-99140000D02*
X133890000Y-97870000D01*
X127710000Y-97870000D02*
X126440000Y-99140000D01*
X133890000Y-97870000D02*
X127710000Y-97870000D01*
D22*
G36*
X138290000Y-105942133D02*
X138260183Y-105878642D01*
X137831924Y-105488355D01*
X137421890Y-105318524D01*
X137192000Y-105439845D01*
X137192000Y-106633000D01*
X137212000Y-106633000D01*
X137212000Y-106887000D01*
X137192000Y-106887000D01*
X137192000Y-108080155D01*
X137421890Y-108201476D01*
X137831924Y-108031645D01*
X138260183Y-107641358D01*
X138290000Y-107577867D01*
X138290000Y-121290000D01*
X136912173Y-121290000D01*
X137180278Y-121022363D01*
X137429716Y-120421648D01*
X137430284Y-119771205D01*
X137181894Y-119170057D01*
X136722363Y-118709722D01*
X136121648Y-118460284D01*
X135471205Y-118459716D01*
X134870057Y-118708106D01*
X134524801Y-119052759D01*
X134182363Y-118709722D01*
X134090000Y-118671370D01*
X134090000Y-115327440D01*
X135460000Y-115327440D01*
X135695317Y-115283162D01*
X135911441Y-115144090D01*
X136056431Y-114931890D01*
X136107440Y-114680000D01*
X136107440Y-114080000D01*
X136063162Y-113844683D01*
X135999322Y-113745472D01*
X136056431Y-113661890D01*
X136075762Y-113566432D01*
X136151673Y-113749698D01*
X136330301Y-113928327D01*
X136563690Y-114025000D01*
X136779250Y-114025000D01*
X136938000Y-113866250D01*
X136938000Y-112917000D01*
X137192000Y-112917000D01*
X137192000Y-113866250D01*
X137350750Y-114025000D01*
X137566310Y-114025000D01*
X137799699Y-113928327D01*
X137978327Y-113749698D01*
X138075000Y-113516309D01*
X138075000Y-113075750D01*
X137916250Y-112917000D01*
X137192000Y-112917000D01*
X136938000Y-112917000D01*
X136918000Y-112917000D01*
X136918000Y-112663000D01*
X136938000Y-112663000D01*
X136938000Y-112643000D01*
X137192000Y-112643000D01*
X137192000Y-112663000D01*
X137916250Y-112663000D01*
X138075000Y-112504250D01*
X138075000Y-112063691D01*
X137978327Y-111830302D01*
X137976957Y-111828932D01*
X138036431Y-111741890D01*
X138087440Y-111490000D01*
X138087440Y-110290000D01*
X138043162Y-110054683D01*
X137904090Y-109838559D01*
X137691890Y-109693569D01*
X137440000Y-109642560D01*
X136690000Y-109642560D01*
X136630000Y-109653850D01*
X136630000Y-108169124D01*
X136708110Y-108201476D01*
X136938000Y-108080155D01*
X136938000Y-106887000D01*
X136918000Y-106887000D01*
X136918000Y-106633000D01*
X136938000Y-106633000D01*
X136938000Y-105439845D01*
X136809311Y-105371931D01*
X136929803Y-105081756D01*
X136930197Y-104630225D01*
X136802460Y-104321079D01*
X137020434Y-104175434D01*
X138120434Y-103075434D01*
X138234024Y-102905434D01*
X138290000Y-102821661D01*
X138290000Y-105942133D01*
X138290000Y-105942133D01*
G37*
X138290000Y-105942133D02*
X138260183Y-105878642D01*
X137831924Y-105488355D01*
X137421890Y-105318524D01*
X137192000Y-105439845D01*
X137192000Y-106633000D01*
X137212000Y-106633000D01*
X137212000Y-106887000D01*
X137192000Y-106887000D01*
X137192000Y-108080155D01*
X137421890Y-108201476D01*
X137831924Y-108031645D01*
X138260183Y-107641358D01*
X138290000Y-107577867D01*
X138290000Y-121290000D01*
X136912173Y-121290000D01*
X137180278Y-121022363D01*
X137429716Y-120421648D01*
X137430284Y-119771205D01*
X137181894Y-119170057D01*
X136722363Y-118709722D01*
X136121648Y-118460284D01*
X135471205Y-118459716D01*
X134870057Y-118708106D01*
X134524801Y-119052759D01*
X134182363Y-118709722D01*
X134090000Y-118671370D01*
X134090000Y-115327440D01*
X135460000Y-115327440D01*
X135695317Y-115283162D01*
X135911441Y-115144090D01*
X136056431Y-114931890D01*
X136107440Y-114680000D01*
X136107440Y-114080000D01*
X136063162Y-113844683D01*
X135999322Y-113745472D01*
X136056431Y-113661890D01*
X136075762Y-113566432D01*
X136151673Y-113749698D01*
X136330301Y-113928327D01*
X136563690Y-114025000D01*
X136779250Y-114025000D01*
X136938000Y-113866250D01*
X136938000Y-112917000D01*
X137192000Y-112917000D01*
X137192000Y-113866250D01*
X137350750Y-114025000D01*
X137566310Y-114025000D01*
X137799699Y-113928327D01*
X137978327Y-113749698D01*
X138075000Y-113516309D01*
X138075000Y-113075750D01*
X137916250Y-112917000D01*
X137192000Y-112917000D01*
X136938000Y-112917000D01*
X136918000Y-112917000D01*
X136918000Y-112663000D01*
X136938000Y-112663000D01*
X136938000Y-112643000D01*
X137192000Y-112643000D01*
X137192000Y-112663000D01*
X137916250Y-112663000D01*
X138075000Y-112504250D01*
X138075000Y-112063691D01*
X137978327Y-111830302D01*
X137976957Y-111828932D01*
X138036431Y-111741890D01*
X138087440Y-111490000D01*
X138087440Y-110290000D01*
X138043162Y-110054683D01*
X137904090Y-109838559D01*
X137691890Y-109693569D01*
X137440000Y-109642560D01*
X136690000Y-109642560D01*
X136630000Y-109653850D01*
X136630000Y-108169124D01*
X136708110Y-108201476D01*
X136938000Y-108080155D01*
X136938000Y-106887000D01*
X136918000Y-106887000D01*
X136918000Y-106633000D01*
X136938000Y-106633000D01*
X136938000Y-105439845D01*
X136809311Y-105371931D01*
X136929803Y-105081756D01*
X136930197Y-104630225D01*
X136802460Y-104321079D01*
X137020434Y-104175434D01*
X138120434Y-103075434D01*
X138234024Y-102905434D01*
X138290000Y-102821661D01*
X138290000Y-105942133D01*
G36*
X129880000Y-118670942D02*
X129790057Y-118708106D01*
X129362438Y-119134978D01*
X129327532Y-119122073D01*
X128354605Y-120095000D01*
X129327532Y-121067927D01*
X129362938Y-121054836D01*
X129597691Y-121290000D01*
X129132226Y-121290000D01*
X129147927Y-121247532D01*
X128175000Y-120274605D01*
X127202073Y-121247532D01*
X127217774Y-121290000D01*
X125710000Y-121290000D01*
X125710000Y-119830461D01*
X126529092Y-119830461D01*
X126553144Y-120480460D01*
X126755613Y-120969264D01*
X127022468Y-121067927D01*
X127995395Y-120095000D01*
X127022468Y-119122073D01*
X126755613Y-119220736D01*
X126529092Y-119830461D01*
X125710000Y-119830461D01*
X125710000Y-118942468D01*
X127202073Y-118942468D01*
X128175000Y-119915395D01*
X129147927Y-118942468D01*
X129049264Y-118675613D01*
X128439539Y-118449092D01*
X127811411Y-118472335D01*
X127888310Y-118438008D01*
X128209841Y-118134438D01*
X128390726Y-117730931D01*
X128257942Y-117555000D01*
X127413000Y-117555000D01*
X127413000Y-118445954D01*
X127574277Y-118562309D01*
X127300736Y-118675613D01*
X127202073Y-118942468D01*
X125710000Y-118942468D01*
X125710000Y-118483470D01*
X125762000Y-118445954D01*
X125762000Y-117555000D01*
X126016000Y-117555000D01*
X126016000Y-118445954D01*
X126190874Y-118572119D01*
X126491310Y-118438008D01*
X126587500Y-118347191D01*
X126683690Y-118438008D01*
X126984126Y-118572119D01*
X127159000Y-118445954D01*
X127159000Y-117555000D01*
X126016000Y-117555000D01*
X125762000Y-117555000D01*
X125742000Y-117555000D01*
X125742000Y-117301000D01*
X125762000Y-117301000D01*
X125762000Y-117281000D01*
X125806436Y-117281000D01*
X125866764Y-117293000D01*
X125911236Y-117293000D01*
X125971564Y-117281000D01*
X126016000Y-117281000D01*
X126016000Y-117301000D01*
X127159000Y-117301000D01*
X127159000Y-117281000D01*
X127203436Y-117281000D01*
X127263764Y-117293000D01*
X127308236Y-117293000D01*
X127368564Y-117281000D01*
X127413000Y-117281000D01*
X127413000Y-117301000D01*
X128257942Y-117301000D01*
X128390726Y-117125069D01*
X128331522Y-116993000D01*
X129880000Y-116993000D01*
X129880000Y-118670942D01*
X129880000Y-118670942D01*
G37*
X129880000Y-118670942D02*
X129790057Y-118708106D01*
X129362438Y-119134978D01*
X129327532Y-119122073D01*
X128354605Y-120095000D01*
X129327532Y-121067927D01*
X129362938Y-121054836D01*
X129597691Y-121290000D01*
X129132226Y-121290000D01*
X129147927Y-121247532D01*
X128175000Y-120274605D01*
X127202073Y-121247532D01*
X127217774Y-121290000D01*
X125710000Y-121290000D01*
X125710000Y-119830461D01*
X126529092Y-119830461D01*
X126553144Y-120480460D01*
X126755613Y-120969264D01*
X127022468Y-121067927D01*
X127995395Y-120095000D01*
X127022468Y-119122073D01*
X126755613Y-119220736D01*
X126529092Y-119830461D01*
X125710000Y-119830461D01*
X125710000Y-118942468D01*
X127202073Y-118942468D01*
X128175000Y-119915395D01*
X129147927Y-118942468D01*
X129049264Y-118675613D01*
X128439539Y-118449092D01*
X127811411Y-118472335D01*
X127888310Y-118438008D01*
X128209841Y-118134438D01*
X128390726Y-117730931D01*
X128257942Y-117555000D01*
X127413000Y-117555000D01*
X127413000Y-118445954D01*
X127574277Y-118562309D01*
X127300736Y-118675613D01*
X127202073Y-118942468D01*
X125710000Y-118942468D01*
X125710000Y-118483470D01*
X125762000Y-118445954D01*
X125762000Y-117555000D01*
X126016000Y-117555000D01*
X126016000Y-118445954D01*
X126190874Y-118572119D01*
X126491310Y-118438008D01*
X126587500Y-118347191D01*
X126683690Y-118438008D01*
X126984126Y-118572119D01*
X127159000Y-118445954D01*
X127159000Y-117555000D01*
X126016000Y-117555000D01*
X125762000Y-117555000D01*
X125742000Y-117555000D01*
X125742000Y-117301000D01*
X125762000Y-117301000D01*
X125762000Y-117281000D01*
X125806436Y-117281000D01*
X125866764Y-117293000D01*
X125911236Y-117293000D01*
X125971564Y-117281000D01*
X126016000Y-117281000D01*
X126016000Y-117301000D01*
X127159000Y-117301000D01*
X127159000Y-117281000D01*
X127203436Y-117281000D01*
X127263764Y-117293000D01*
X127308236Y-117293000D01*
X127368564Y-117281000D01*
X127413000Y-117281000D01*
X127413000Y-117301000D01*
X128257942Y-117301000D01*
X128390726Y-117125069D01*
X128331522Y-116993000D01*
X129880000Y-116993000D01*
X129880000Y-118670942D01*
G36*
X136086838Y-111725317D02*
X136153329Y-111828646D01*
X136151673Y-111830302D01*
X136055000Y-112063691D01*
X136055000Y-112085750D01*
X135936250Y-111967000D01*
X134812000Y-111967000D01*
X134812000Y-111987000D01*
X134558000Y-111987000D01*
X134558000Y-111967000D01*
X134538000Y-111967000D01*
X134538000Y-111713000D01*
X134558000Y-111713000D01*
X134558000Y-111693000D01*
X134812000Y-111693000D01*
X134812000Y-111713000D01*
X135936250Y-111713000D01*
X136061040Y-111588210D01*
X136086838Y-111725317D01*
X136086838Y-111725317D01*
G37*
X136086838Y-111725317D02*
X136153329Y-111828646D01*
X136151673Y-111830302D01*
X136055000Y-112063691D01*
X136055000Y-112085750D01*
X135936250Y-111967000D01*
X134812000Y-111967000D01*
X134812000Y-111987000D01*
X134558000Y-111987000D01*
X134558000Y-111967000D01*
X134538000Y-111967000D01*
X134538000Y-111713000D01*
X134558000Y-111713000D01*
X134558000Y-111693000D01*
X134812000Y-111693000D01*
X134812000Y-111713000D01*
X135936250Y-111713000D01*
X136061040Y-111588210D01*
X136086838Y-111725317D01*
M02*
