G04 #@! TF.FileFunction,Legend,Top*
%FSLAX46Y46*%
G04 Gerber Fmt 4.6, Leading zero omitted, Abs format (unit mm)*
G04 Created by KiCad (PCBNEW 4.0.6) date 11/10/17 20:31:32*
%MOMM*%
%LPD*%
G01*
G04 APERTURE LIST*
%ADD10C,0.100000*%
%ADD11C,0.120000*%
%ADD12C,0.150000*%
G04 APERTURE END LIST*
D10*
X129096095Y-118044000D02*
X129019904Y-118005905D01*
X128905619Y-118005905D01*
X128791333Y-118044000D01*
X128715142Y-118120190D01*
X128677047Y-118196381D01*
X128638952Y-118348762D01*
X128638952Y-118463048D01*
X128677047Y-118615429D01*
X128715142Y-118691619D01*
X128791333Y-118767810D01*
X128905619Y-118805905D01*
X128981809Y-118805905D01*
X129096095Y-118767810D01*
X129134190Y-118729714D01*
X129134190Y-118463048D01*
X128981809Y-118463048D01*
X130696095Y-118805905D02*
X130696095Y-118005905D01*
X130886571Y-118005905D01*
X131000857Y-118044000D01*
X131077048Y-118120190D01*
X131115143Y-118196381D01*
X131153238Y-118348762D01*
X131153238Y-118463048D01*
X131115143Y-118615429D01*
X131077048Y-118691619D01*
X131000857Y-118767810D01*
X130886571Y-118805905D01*
X130696095Y-118805905D01*
X133172286Y-118729714D02*
X133134191Y-118767810D01*
X133019905Y-118805905D01*
X132943715Y-118805905D01*
X132829429Y-118767810D01*
X132753238Y-118691619D01*
X132715143Y-118615429D01*
X132677048Y-118463048D01*
X132677048Y-118348762D01*
X132715143Y-118196381D01*
X132753238Y-118120190D01*
X132829429Y-118044000D01*
X132943715Y-118005905D01*
X133019905Y-118005905D01*
X133134191Y-118044000D01*
X133172286Y-118082095D01*
X134619905Y-118005905D02*
X134886572Y-118805905D01*
X135153239Y-118005905D01*
D11*
X125575000Y-105420000D02*
X128175000Y-105420000D01*
X128175000Y-105420000D02*
X128175000Y-102800000D01*
X128175000Y-102800000D02*
X125575000Y-102800000D01*
X125575000Y-102800000D02*
X125575000Y-105420000D01*
X126525000Y-102800000D02*
X127285000Y-102800000D01*
X127285000Y-102800000D02*
X127285000Y-96800000D01*
X127285000Y-96800000D02*
X126525000Y-96800000D01*
X126525000Y-96800000D02*
X126525000Y-102800000D01*
X126525000Y-105850000D02*
X126525000Y-105420000D01*
X127285000Y-105850000D02*
X127285000Y-105420000D01*
X126645000Y-102800000D02*
X126645000Y-96800000D01*
X126765000Y-102800000D02*
X126765000Y-96800000D01*
X126885000Y-102800000D02*
X126885000Y-96800000D01*
X127005000Y-102800000D02*
X127005000Y-96800000D01*
X127125000Y-102800000D02*
X127125000Y-96800000D01*
X127245000Y-102800000D02*
X127245000Y-96800000D01*
X128175000Y-105420000D02*
X130715000Y-105420000D01*
X130715000Y-105420000D02*
X130715000Y-102800000D01*
X130715000Y-102800000D02*
X128175000Y-102800000D01*
X128175000Y-102800000D02*
X128175000Y-105420000D01*
X129065000Y-102800000D02*
X129825000Y-102800000D01*
X129825000Y-102800000D02*
X129825000Y-96800000D01*
X129825000Y-96800000D02*
X129065000Y-96800000D01*
X129065000Y-96800000D02*
X129065000Y-102800000D01*
X129065000Y-105850000D02*
X129065000Y-105420000D01*
X129825000Y-105850000D02*
X129825000Y-105420000D01*
X130715000Y-105420000D02*
X133255000Y-105420000D01*
X133255000Y-105420000D02*
X133255000Y-102800000D01*
X133255000Y-102800000D02*
X130715000Y-102800000D01*
X130715000Y-102800000D02*
X130715000Y-105420000D01*
X131605000Y-102800000D02*
X132365000Y-102800000D01*
X132365000Y-102800000D02*
X132365000Y-96800000D01*
X132365000Y-96800000D02*
X131605000Y-96800000D01*
X131605000Y-96800000D02*
X131605000Y-102800000D01*
X131605000Y-105850000D02*
X131605000Y-105420000D01*
X132365000Y-105850000D02*
X132365000Y-105420000D01*
X133255000Y-105420000D02*
X135795000Y-105420000D01*
X135795000Y-105420000D02*
X135795000Y-102800000D01*
X135795000Y-102800000D02*
X133255000Y-102800000D01*
X133255000Y-102800000D02*
X133255000Y-105420000D01*
X134145000Y-102800000D02*
X134905000Y-102800000D01*
X134905000Y-102800000D02*
X134905000Y-96800000D01*
X134905000Y-96800000D02*
X134145000Y-96800000D01*
X134145000Y-96800000D02*
X134145000Y-102800000D01*
X134145000Y-105850000D02*
X134145000Y-105420000D01*
X134905000Y-105850000D02*
X134905000Y-105420000D01*
X135795000Y-105420000D02*
X138395000Y-105420000D01*
X138395000Y-105420000D02*
X138395000Y-102800000D01*
X138395000Y-102800000D02*
X135795000Y-102800000D01*
X135795000Y-102800000D02*
X135795000Y-105420000D01*
X136685000Y-102800000D02*
X137445000Y-102800000D01*
X137445000Y-102800000D02*
X137445000Y-96800000D01*
X137445000Y-96800000D02*
X136685000Y-96800000D01*
X136685000Y-96800000D02*
X136685000Y-102800000D01*
X136685000Y-105850000D02*
X136685000Y-105420000D01*
X137445000Y-105850000D02*
X137445000Y-105420000D01*
X126905000Y-108030000D02*
X125635000Y-108030000D01*
X125635000Y-108030000D02*
X125635000Y-106760000D01*
D12*
X129910000Y-109900000D02*
X129910000Y-109950000D01*
X134060000Y-109900000D02*
X134060000Y-110045000D01*
X134060000Y-115050000D02*
X134060000Y-114905000D01*
X129910000Y-115050000D02*
X129910000Y-114905000D01*
X129910000Y-109900000D02*
X134060000Y-109900000D01*
X129910000Y-115050000D02*
X134060000Y-115050000D01*
X129910000Y-109950000D02*
X128510000Y-109950000D01*
D11*
X137665000Y-111490000D02*
X137665000Y-112190000D01*
X136465000Y-112190000D02*
X136465000Y-111490000D01*
X126606000Y-112213000D02*
X126606000Y-111213000D01*
X127966000Y-111213000D02*
X127966000Y-112213000D01*
X125209000Y-112213000D02*
X125209000Y-111213000D01*
X126569000Y-111213000D02*
X126569000Y-112213000D01*
X136930000Y-99820000D02*
X135930000Y-99820000D01*
X135930000Y-98460000D02*
X136930000Y-98460000D01*
X128040000Y-99820000D02*
X127040000Y-99820000D01*
X127040000Y-98460000D02*
X128040000Y-98460000D01*
D12*
X129461143Y-104624762D02*
X129604000Y-104672381D01*
X129842096Y-104672381D01*
X129937334Y-104624762D01*
X129984953Y-104577143D01*
X130032572Y-104481905D01*
X130032572Y-104386667D01*
X129984953Y-104291429D01*
X129937334Y-104243810D01*
X129842096Y-104196190D01*
X129651619Y-104148571D01*
X129556381Y-104100952D01*
X129508762Y-104053333D01*
X129461143Y-103958095D01*
X129461143Y-103862857D01*
X129508762Y-103767619D01*
X129556381Y-103720000D01*
X129651619Y-103672381D01*
X129889715Y-103672381D01*
X130032572Y-103720000D01*
X130461143Y-104672381D02*
X130461143Y-103672381D01*
X130461143Y-104148571D02*
X131032572Y-104148571D01*
X131032572Y-104672381D02*
X131032572Y-103672381D01*
X131365905Y-103672381D02*
X131937334Y-103672381D01*
X131651619Y-104672381D02*
X131651619Y-103672381D01*
X132175429Y-103672381D02*
X132794477Y-103672381D01*
X132461143Y-104053333D01*
X132604001Y-104053333D01*
X132699239Y-104100952D01*
X132746858Y-104148571D01*
X132794477Y-104243810D01*
X132794477Y-104481905D01*
X132746858Y-104577143D01*
X132699239Y-104624762D01*
X132604001Y-104672381D01*
X132318286Y-104672381D01*
X132223048Y-104624762D01*
X132175429Y-104577143D01*
X133746858Y-104672381D02*
X133175429Y-104672381D01*
X133461143Y-104672381D02*
X133461143Y-103672381D01*
X133365905Y-103815238D01*
X133270667Y-103910476D01*
X133175429Y-103958095D01*
D10*
X126968572Y-114767333D02*
X127349524Y-114767333D01*
X126892381Y-114995905D02*
X127159048Y-114195905D01*
X127425715Y-114995905D01*
X127844762Y-114195905D02*
X127920953Y-114195905D01*
X127997143Y-114234000D01*
X128035238Y-114272095D01*
X128073334Y-114348286D01*
X128111429Y-114500667D01*
X128111429Y-114691143D01*
X128073334Y-114843524D01*
X128035238Y-114919714D01*
X127997143Y-114957810D01*
X127920953Y-114995905D01*
X127844762Y-114995905D01*
X127768572Y-114957810D01*
X127730476Y-114919714D01*
X127692381Y-114843524D01*
X127654286Y-114691143D01*
X127654286Y-114500667D01*
X127692381Y-114348286D01*
X127730476Y-114272095D01*
X127768572Y-114234000D01*
X127844762Y-114195905D01*
X125444572Y-114767333D02*
X125825524Y-114767333D01*
X125368381Y-114995905D02*
X125635048Y-114195905D01*
X125901715Y-114995905D01*
X126587429Y-114995905D02*
X126130286Y-114995905D01*
X126358857Y-114995905D02*
X126358857Y-114195905D01*
X126282667Y-114310190D01*
X126206476Y-114386381D01*
X126130286Y-114424476D01*
D12*
X131651667Y-111927381D02*
X131651667Y-112641667D01*
X131604047Y-112784524D01*
X131508809Y-112879762D01*
X131365952Y-112927381D01*
X131270714Y-112927381D01*
X132080238Y-112022619D02*
X132127857Y-111975000D01*
X132223095Y-111927381D01*
X132461191Y-111927381D01*
X132556429Y-111975000D01*
X132604048Y-112022619D01*
X132651667Y-112117857D01*
X132651667Y-112213095D01*
X132604048Y-112355952D01*
X132032619Y-112927381D01*
X132651667Y-112927381D01*
X128834190Y-116324667D02*
X129310381Y-116324667D01*
X128738952Y-116610381D02*
X129072285Y-115610381D01*
X129405619Y-116610381D01*
X129738952Y-116610381D02*
X129738952Y-115610381D01*
X129977047Y-115610381D01*
X130119905Y-115658000D01*
X130215143Y-115753238D01*
X130262762Y-115848476D01*
X130310381Y-116038952D01*
X130310381Y-116181810D01*
X130262762Y-116372286D01*
X130215143Y-116467524D01*
X130119905Y-116562762D01*
X129977047Y-116610381D01*
X129738952Y-116610381D01*
X130596095Y-115610381D02*
X131167524Y-115610381D01*
X130881809Y-116610381D02*
X130881809Y-115610381D01*
X131405619Y-115610381D02*
X132072286Y-115610381D01*
X131643714Y-116610381D01*
X132881810Y-115943714D02*
X132881810Y-116610381D01*
X132643714Y-115562762D02*
X132405619Y-116277048D01*
X133024667Y-116277048D01*
X133929429Y-116610381D02*
X133358000Y-116610381D01*
X133643714Y-116610381D02*
X133643714Y-115610381D01*
X133548476Y-115753238D01*
X133453238Y-115848476D01*
X133358000Y-115896095D01*
X134548476Y-115610381D02*
X134643715Y-115610381D01*
X134738953Y-115658000D01*
X134786572Y-115705619D01*
X134834191Y-115800857D01*
X134881810Y-115991333D01*
X134881810Y-116229429D01*
X134834191Y-116419905D01*
X134786572Y-116515143D01*
X134738953Y-116562762D01*
X134643715Y-116610381D01*
X134548476Y-116610381D01*
X134453238Y-116562762D01*
X134405619Y-116515143D01*
X134358000Y-116419905D01*
X134310381Y-116229429D01*
X134310381Y-115991333D01*
X134358000Y-115800857D01*
X134405619Y-115705619D01*
X134453238Y-115658000D01*
X134548476Y-115610381D01*
X136517381Y-116864286D02*
X136517381Y-116769047D01*
X136565000Y-116673809D01*
X136612619Y-116626190D01*
X136707857Y-116578571D01*
X136898333Y-116530952D01*
X137136429Y-116530952D01*
X137326905Y-116578571D01*
X137422143Y-116626190D01*
X137469762Y-116673809D01*
X137517381Y-116769047D01*
X137517381Y-116864286D01*
X137469762Y-116959524D01*
X137422143Y-117007143D01*
X137326905Y-117054762D01*
X137136429Y-117102381D01*
X136898333Y-117102381D01*
X136707857Y-117054762D01*
X136612619Y-117007143D01*
X136565000Y-116959524D01*
X136517381Y-116864286D01*
X137422143Y-116102381D02*
X137469762Y-116054762D01*
X137517381Y-116102381D01*
X137469762Y-116150000D01*
X137422143Y-116102381D01*
X137517381Y-116102381D01*
X137517381Y-115102381D02*
X137517381Y-115673810D01*
X137517381Y-115388096D02*
X136517381Y-115388096D01*
X136660238Y-115483334D01*
X136755476Y-115578572D01*
X136803095Y-115673810D01*
X136850714Y-114245238D02*
X137517381Y-114245238D01*
X136850714Y-114673810D02*
X137374524Y-114673810D01*
X137469762Y-114626191D01*
X137517381Y-114530953D01*
X137517381Y-114388095D01*
X137469762Y-114292857D01*
X137422143Y-114245238D01*
M02*
