G04 #@! TF.FileFunction,Copper,L2,Bot,Signal*
%FSLAX46Y46*%
G04 Gerber Fmt 4.6, Leading zero omitted, Abs format (unit mm)*
G04 Created by KiCad (PCBNEW 4.0.6) date 11/10/17 20:31:32*
%MOMM*%
%LPD*%
G01*
G04 APERTURE LIST*
%ADD10C,0.100000*%
%ADD11R,1.700000X1.700000*%
%ADD12O,1.700000X1.700000*%
%ADD13O,1.000000X1.100000*%
%ADD14O,1.000000X1.000000*%
%ADD15C,2.000000*%
%ADD16C,1.000000*%
%ADD17C,0.400000*%
%ADD18C,0.254000*%
G04 APERTURE END LIST*
D10*
D11*
X126905000Y-106760000D03*
D12*
X129445000Y-106760000D03*
X131985000Y-106760000D03*
X134525000Y-106760000D03*
X137065000Y-106760000D03*
D13*
X127286000Y-117428000D03*
D14*
X127286000Y-116158000D03*
D13*
X125889000Y-117428000D03*
D14*
X125889000Y-116158000D03*
D15*
X135795000Y-120095000D03*
X133255000Y-120095000D03*
X130715000Y-120095000D03*
X128175000Y-120095000D03*
D16*
X134525000Y-116920000D03*
X131985000Y-113110000D03*
X133890000Y-109300000D03*
X135795000Y-104855000D03*
D17*
X128175000Y-120095000D02*
X128175000Y-118190000D01*
X129445000Y-116920000D02*
X134525000Y-116920000D01*
X128175000Y-118190000D02*
X129445000Y-116920000D01*
X128175000Y-120095000D02*
X128175000Y-118317000D01*
X128175000Y-118317000D02*
X127286000Y-117428000D01*
X125889000Y-117428000D02*
X127286000Y-117428000D01*
X131985000Y-113110000D02*
X131985000Y-109300000D01*
X131985000Y-109300000D02*
X129445000Y-106760000D01*
X135795000Y-111205000D02*
X135795000Y-120095000D01*
X133890000Y-109300000D02*
X135795000Y-111205000D01*
X126905000Y-106760000D02*
X126905000Y-105490000D01*
X135795000Y-104855000D02*
X134525000Y-103585000D01*
X134525000Y-103585000D02*
X128810000Y-103585000D01*
X126905000Y-105490000D02*
X128810000Y-103585000D01*
D18*
G36*
X138290000Y-105942133D02*
X138260183Y-105878642D01*
X137831924Y-105488355D01*
X137421890Y-105318524D01*
X137192000Y-105439845D01*
X137192000Y-106633000D01*
X137212000Y-106633000D01*
X137212000Y-106887000D01*
X137192000Y-106887000D01*
X137192000Y-108080155D01*
X137421890Y-108201476D01*
X137831924Y-108031645D01*
X138260183Y-107641358D01*
X138290000Y-107577867D01*
X138290000Y-121290000D01*
X136912173Y-121290000D01*
X137180278Y-121022363D01*
X137429716Y-120421648D01*
X137430284Y-119771205D01*
X137181894Y-119170057D01*
X136722363Y-118709722D01*
X136630000Y-118671370D01*
X136630000Y-111205000D01*
X136566439Y-110885459D01*
X136385434Y-110614566D01*
X135025041Y-109254173D01*
X135025197Y-109075225D01*
X134852767Y-108657914D01*
X134533765Y-108338355D01*
X134244763Y-108218350D01*
X134525000Y-108274093D01*
X135093285Y-108161054D01*
X135575054Y-107839147D01*
X135802702Y-107498447D01*
X135869817Y-107641358D01*
X136298076Y-108031645D01*
X136708110Y-108201476D01*
X136938000Y-108080155D01*
X136938000Y-106887000D01*
X136918000Y-106887000D01*
X136918000Y-106633000D01*
X136938000Y-106633000D01*
X136938000Y-105439845D01*
X136809311Y-105371931D01*
X136929803Y-105081756D01*
X136930197Y-104630225D01*
X136757767Y-104212914D01*
X136438765Y-103893355D01*
X136021756Y-103720197D01*
X135840907Y-103720039D01*
X135115434Y-102994566D01*
X134844541Y-102813561D01*
X134525000Y-102750000D01*
X128810000Y-102750000D01*
X128490459Y-102813561D01*
X128219566Y-102994566D01*
X126314566Y-104899566D01*
X126133561Y-105170459D01*
X126115241Y-105262560D01*
X126055000Y-105262560D01*
X125819683Y-105306838D01*
X125710000Y-105377417D01*
X125710000Y-100000000D01*
X129823173Y-100000000D01*
X129985690Y-100817029D01*
X130448500Y-101509673D01*
X131141144Y-101972483D01*
X131958173Y-102135000D01*
X132041827Y-102135000D01*
X132858856Y-101972483D01*
X133551500Y-101509673D01*
X134014310Y-100817029D01*
X134176827Y-100000000D01*
X134014310Y-99182971D01*
X133551500Y-98490327D01*
X132858856Y-98027517D01*
X132041827Y-97865000D01*
X131958173Y-97865000D01*
X131141144Y-98027517D01*
X130448500Y-98490327D01*
X129985690Y-99182971D01*
X129823173Y-100000000D01*
X125710000Y-100000000D01*
X125710000Y-97710000D01*
X138290000Y-97710000D01*
X138290000Y-105942133D01*
X138290000Y-105942133D01*
G37*
X138290000Y-105942133D02*
X138260183Y-105878642D01*
X137831924Y-105488355D01*
X137421890Y-105318524D01*
X137192000Y-105439845D01*
X137192000Y-106633000D01*
X137212000Y-106633000D01*
X137212000Y-106887000D01*
X137192000Y-106887000D01*
X137192000Y-108080155D01*
X137421890Y-108201476D01*
X137831924Y-108031645D01*
X138260183Y-107641358D01*
X138290000Y-107577867D01*
X138290000Y-121290000D01*
X136912173Y-121290000D01*
X137180278Y-121022363D01*
X137429716Y-120421648D01*
X137430284Y-119771205D01*
X137181894Y-119170057D01*
X136722363Y-118709722D01*
X136630000Y-118671370D01*
X136630000Y-111205000D01*
X136566439Y-110885459D01*
X136385434Y-110614566D01*
X135025041Y-109254173D01*
X135025197Y-109075225D01*
X134852767Y-108657914D01*
X134533765Y-108338355D01*
X134244763Y-108218350D01*
X134525000Y-108274093D01*
X135093285Y-108161054D01*
X135575054Y-107839147D01*
X135802702Y-107498447D01*
X135869817Y-107641358D01*
X136298076Y-108031645D01*
X136708110Y-108201476D01*
X136938000Y-108080155D01*
X136938000Y-106887000D01*
X136918000Y-106887000D01*
X136918000Y-106633000D01*
X136938000Y-106633000D01*
X136938000Y-105439845D01*
X136809311Y-105371931D01*
X136929803Y-105081756D01*
X136930197Y-104630225D01*
X136757767Y-104212914D01*
X136438765Y-103893355D01*
X136021756Y-103720197D01*
X135840907Y-103720039D01*
X135115434Y-102994566D01*
X134844541Y-102813561D01*
X134525000Y-102750000D01*
X128810000Y-102750000D01*
X128490459Y-102813561D01*
X128219566Y-102994566D01*
X126314566Y-104899566D01*
X126133561Y-105170459D01*
X126115241Y-105262560D01*
X126055000Y-105262560D01*
X125819683Y-105306838D01*
X125710000Y-105377417D01*
X125710000Y-100000000D01*
X129823173Y-100000000D01*
X129985690Y-100817029D01*
X130448500Y-101509673D01*
X131141144Y-101972483D01*
X131958173Y-102135000D01*
X132041827Y-102135000D01*
X132858856Y-101972483D01*
X133551500Y-101509673D01*
X134014310Y-100817029D01*
X134176827Y-100000000D01*
X134014310Y-99182971D01*
X133551500Y-98490327D01*
X132858856Y-98027517D01*
X132041827Y-97865000D01*
X131958173Y-97865000D01*
X131141144Y-98027517D01*
X130448500Y-98490327D01*
X129985690Y-99182971D01*
X129823173Y-100000000D01*
X125710000Y-100000000D01*
X125710000Y-97710000D01*
X138290000Y-97710000D01*
X138290000Y-105942133D01*
G36*
X128394946Y-107839147D02*
X128876715Y-108161054D01*
X129445000Y-108274093D01*
X129722939Y-108218807D01*
X131150000Y-109645868D01*
X131150000Y-112339811D01*
X131023355Y-112466235D01*
X130850197Y-112883244D01*
X130849803Y-113334775D01*
X131022233Y-113752086D01*
X131341235Y-114071645D01*
X131758244Y-114244803D01*
X132209775Y-114245197D01*
X132627086Y-114072767D01*
X132946645Y-113753765D01*
X133119803Y-113336756D01*
X133120197Y-112885225D01*
X132947767Y-112467914D01*
X132820000Y-112339924D01*
X132820000Y-109682563D01*
X132927233Y-109942086D01*
X133246235Y-110261645D01*
X133663244Y-110434803D01*
X133844093Y-110434961D01*
X134960000Y-111550868D01*
X134960000Y-118670942D01*
X134870057Y-118708106D01*
X134524801Y-119052759D01*
X134182363Y-118709722D01*
X133581648Y-118460284D01*
X132931205Y-118459716D01*
X132330057Y-118708106D01*
X131984801Y-119052759D01*
X131642363Y-118709722D01*
X131041648Y-118460284D01*
X130391205Y-118459716D01*
X129790057Y-118708106D01*
X129362438Y-119134978D01*
X129327532Y-119122073D01*
X128354605Y-120095000D01*
X129327532Y-121067927D01*
X129362938Y-121054836D01*
X129597691Y-121290000D01*
X129132226Y-121290000D01*
X129147927Y-121247532D01*
X128175000Y-120274605D01*
X127202073Y-121247532D01*
X127217774Y-121290000D01*
X125710000Y-121290000D01*
X125710000Y-119830461D01*
X126529092Y-119830461D01*
X126553144Y-120480460D01*
X126755613Y-120969264D01*
X127022468Y-121067927D01*
X127995395Y-120095000D01*
X127022468Y-119122073D01*
X126755613Y-119220736D01*
X126529092Y-119830461D01*
X125710000Y-119830461D01*
X125710000Y-118942468D01*
X127202073Y-118942468D01*
X128175000Y-119915395D01*
X129147927Y-118942468D01*
X129049264Y-118675613D01*
X128439539Y-118449092D01*
X127811411Y-118472335D01*
X127888310Y-118438008D01*
X128209841Y-118134438D01*
X128390726Y-117730931D01*
X128257942Y-117555000D01*
X127413000Y-117555000D01*
X127413000Y-118445954D01*
X127574277Y-118562309D01*
X127300736Y-118675613D01*
X127202073Y-118942468D01*
X125710000Y-118942468D01*
X125710000Y-118483470D01*
X125762000Y-118445954D01*
X125762000Y-117555000D01*
X126016000Y-117555000D01*
X126016000Y-118445954D01*
X126190874Y-118572119D01*
X126491310Y-118438008D01*
X126587500Y-118347191D01*
X126683690Y-118438008D01*
X126984126Y-118572119D01*
X127159000Y-118445954D01*
X127159000Y-117555000D01*
X126016000Y-117555000D01*
X125762000Y-117555000D01*
X125742000Y-117555000D01*
X125742000Y-117301000D01*
X125762000Y-117301000D01*
X125762000Y-117281000D01*
X125806436Y-117281000D01*
X125866764Y-117293000D01*
X125911236Y-117293000D01*
X125971564Y-117281000D01*
X126016000Y-117281000D01*
X126016000Y-117301000D01*
X127159000Y-117301000D01*
X127159000Y-117281000D01*
X127203436Y-117281000D01*
X127263764Y-117293000D01*
X127308236Y-117293000D01*
X127368564Y-117281000D01*
X127413000Y-117281000D01*
X127413000Y-117301000D01*
X128257942Y-117301000D01*
X128390726Y-117125069D01*
X128234197Y-116775893D01*
X128356839Y-116592346D01*
X128443236Y-116158000D01*
X128356839Y-115723654D01*
X128110802Y-115355434D01*
X127742582Y-115109397D01*
X127308236Y-115023000D01*
X127263764Y-115023000D01*
X126829418Y-115109397D01*
X126587500Y-115271042D01*
X126345582Y-115109397D01*
X125911236Y-115023000D01*
X125866764Y-115023000D01*
X125710000Y-115054182D01*
X125710000Y-108142812D01*
X125803110Y-108206431D01*
X126055000Y-108257440D01*
X127755000Y-108257440D01*
X127990317Y-108213162D01*
X128206441Y-108074090D01*
X128351431Y-107861890D01*
X128365086Y-107794459D01*
X128394946Y-107839147D01*
X128394946Y-107839147D01*
G37*
X128394946Y-107839147D02*
X128876715Y-108161054D01*
X129445000Y-108274093D01*
X129722939Y-108218807D01*
X131150000Y-109645868D01*
X131150000Y-112339811D01*
X131023355Y-112466235D01*
X130850197Y-112883244D01*
X130849803Y-113334775D01*
X131022233Y-113752086D01*
X131341235Y-114071645D01*
X131758244Y-114244803D01*
X132209775Y-114245197D01*
X132627086Y-114072767D01*
X132946645Y-113753765D01*
X133119803Y-113336756D01*
X133120197Y-112885225D01*
X132947767Y-112467914D01*
X132820000Y-112339924D01*
X132820000Y-109682563D01*
X132927233Y-109942086D01*
X133246235Y-110261645D01*
X133663244Y-110434803D01*
X133844093Y-110434961D01*
X134960000Y-111550868D01*
X134960000Y-118670942D01*
X134870057Y-118708106D01*
X134524801Y-119052759D01*
X134182363Y-118709722D01*
X133581648Y-118460284D01*
X132931205Y-118459716D01*
X132330057Y-118708106D01*
X131984801Y-119052759D01*
X131642363Y-118709722D01*
X131041648Y-118460284D01*
X130391205Y-118459716D01*
X129790057Y-118708106D01*
X129362438Y-119134978D01*
X129327532Y-119122073D01*
X128354605Y-120095000D01*
X129327532Y-121067927D01*
X129362938Y-121054836D01*
X129597691Y-121290000D01*
X129132226Y-121290000D01*
X129147927Y-121247532D01*
X128175000Y-120274605D01*
X127202073Y-121247532D01*
X127217774Y-121290000D01*
X125710000Y-121290000D01*
X125710000Y-119830461D01*
X126529092Y-119830461D01*
X126553144Y-120480460D01*
X126755613Y-120969264D01*
X127022468Y-121067927D01*
X127995395Y-120095000D01*
X127022468Y-119122073D01*
X126755613Y-119220736D01*
X126529092Y-119830461D01*
X125710000Y-119830461D01*
X125710000Y-118942468D01*
X127202073Y-118942468D01*
X128175000Y-119915395D01*
X129147927Y-118942468D01*
X129049264Y-118675613D01*
X128439539Y-118449092D01*
X127811411Y-118472335D01*
X127888310Y-118438008D01*
X128209841Y-118134438D01*
X128390726Y-117730931D01*
X128257942Y-117555000D01*
X127413000Y-117555000D01*
X127413000Y-118445954D01*
X127574277Y-118562309D01*
X127300736Y-118675613D01*
X127202073Y-118942468D01*
X125710000Y-118942468D01*
X125710000Y-118483470D01*
X125762000Y-118445954D01*
X125762000Y-117555000D01*
X126016000Y-117555000D01*
X126016000Y-118445954D01*
X126190874Y-118572119D01*
X126491310Y-118438008D01*
X126587500Y-118347191D01*
X126683690Y-118438008D01*
X126984126Y-118572119D01*
X127159000Y-118445954D01*
X127159000Y-117555000D01*
X126016000Y-117555000D01*
X125762000Y-117555000D01*
X125742000Y-117555000D01*
X125742000Y-117301000D01*
X125762000Y-117301000D01*
X125762000Y-117281000D01*
X125806436Y-117281000D01*
X125866764Y-117293000D01*
X125911236Y-117293000D01*
X125971564Y-117281000D01*
X126016000Y-117281000D01*
X126016000Y-117301000D01*
X127159000Y-117301000D01*
X127159000Y-117281000D01*
X127203436Y-117281000D01*
X127263764Y-117293000D01*
X127308236Y-117293000D01*
X127368564Y-117281000D01*
X127413000Y-117281000D01*
X127413000Y-117301000D01*
X128257942Y-117301000D01*
X128390726Y-117125069D01*
X128234197Y-116775893D01*
X128356839Y-116592346D01*
X128443236Y-116158000D01*
X128356839Y-115723654D01*
X128110802Y-115355434D01*
X127742582Y-115109397D01*
X127308236Y-115023000D01*
X127263764Y-115023000D01*
X126829418Y-115109397D01*
X126587500Y-115271042D01*
X126345582Y-115109397D01*
X125911236Y-115023000D01*
X125866764Y-115023000D01*
X125710000Y-115054182D01*
X125710000Y-108142812D01*
X125803110Y-108206431D01*
X126055000Y-108257440D01*
X127755000Y-108257440D01*
X127990317Y-108213162D01*
X128206441Y-108074090D01*
X128351431Y-107861890D01*
X128365086Y-107794459D01*
X128394946Y-107839147D01*
M02*
