G04 #@! TF.FileFunction,Legend,Bot*
%FSLAX46Y46*%
G04 Gerber Fmt 4.6, Leading zero omitted, Abs format (unit mm)*
G04 Created by KiCad (PCBNEW 4.0.6) date 11/10/17 20:31:32*
%MOMM*%
%LPD*%
G01*
G04 APERTURE LIST*
%ADD10C,0.100000*%
%ADD11C,0.150000*%
G04 APERTURE END LIST*
D10*
D11*
X136953905Y-103576619D02*
X136953905Y-104576619D01*
X136953905Y-104100429D02*
X136382476Y-104100429D01*
X136382476Y-103576619D02*
X136382476Y-104576619D01*
X135525333Y-103624238D02*
X135620571Y-103576619D01*
X135811048Y-103576619D01*
X135906286Y-103624238D01*
X135953905Y-103719476D01*
X135953905Y-104100429D01*
X135906286Y-104195667D01*
X135811048Y-104243286D01*
X135620571Y-104243286D01*
X135525333Y-104195667D01*
X135477714Y-104100429D01*
X135477714Y-104005190D01*
X135953905Y-103909952D01*
X134620571Y-103576619D02*
X134620571Y-104100429D01*
X134668190Y-104195667D01*
X134763428Y-104243286D01*
X134953905Y-104243286D01*
X135049143Y-104195667D01*
X134620571Y-103624238D02*
X134715809Y-103576619D01*
X134953905Y-103576619D01*
X135049143Y-103624238D01*
X135096762Y-103719476D01*
X135096762Y-103814714D01*
X135049143Y-103909952D01*
X134953905Y-103957571D01*
X134715809Y-103957571D01*
X134620571Y-104005190D01*
X134287238Y-104243286D02*
X133906286Y-104243286D01*
X134144381Y-104576619D02*
X134144381Y-103719476D01*
X134096762Y-103624238D01*
X134001524Y-103576619D01*
X133906286Y-103576619D01*
X132906285Y-104243286D02*
X132668190Y-103576619D01*
X132430094Y-104243286D01*
X131525332Y-103576619D02*
X132096761Y-103576619D01*
X131811047Y-103576619D02*
X131811047Y-104576619D01*
X131906285Y-104433762D01*
X132001523Y-104338524D01*
X132096761Y-104290905D01*
X131096761Y-103671857D02*
X131049142Y-103624238D01*
X131096761Y-103576619D01*
X131144380Y-103624238D01*
X131096761Y-103671857D01*
X131096761Y-103576619D01*
X130668190Y-104481381D02*
X130620571Y-104529000D01*
X130525333Y-104576619D01*
X130287237Y-104576619D01*
X130191999Y-104529000D01*
X130144380Y-104481381D01*
X130096761Y-104386143D01*
X130096761Y-104290905D01*
X130144380Y-104148048D01*
X130715809Y-103576619D01*
X130096761Y-103576619D01*
X136668190Y-101545667D02*
X136715810Y-101593286D01*
X136811048Y-101736143D01*
X136858667Y-101831381D01*
X136906286Y-101974238D01*
X136953905Y-102212333D01*
X136953905Y-102402810D01*
X136906286Y-102640905D01*
X136858667Y-102783762D01*
X136811048Y-102879000D01*
X136715810Y-103021857D01*
X136668190Y-103069476D01*
X135858666Y-101974238D02*
X135953904Y-101926619D01*
X136144381Y-101926619D01*
X136239619Y-101974238D01*
X136287238Y-102021857D01*
X136334857Y-102117095D01*
X136334857Y-102402810D01*
X136287238Y-102498048D01*
X136239619Y-102545667D01*
X136144381Y-102593286D01*
X135953904Y-102593286D01*
X135858666Y-102545667D01*
X135525333Y-101545667D02*
X135477714Y-101593286D01*
X135382476Y-101736143D01*
X135334857Y-101831381D01*
X135287238Y-101974238D01*
X135239619Y-102212333D01*
X135239619Y-102402810D01*
X135287238Y-102640905D01*
X135334857Y-102783762D01*
X135382476Y-102879000D01*
X135477714Y-103021857D01*
X135525333Y-103069476D01*
X134001523Y-101926619D02*
X134001523Y-102926619D01*
X134001523Y-102450429D02*
X133430094Y-102450429D01*
X133430094Y-101926619D02*
X133430094Y-102926619D01*
X132953904Y-102021857D02*
X132906285Y-101974238D01*
X132953904Y-101926619D01*
X133001523Y-101974238D01*
X132953904Y-102021857D01*
X132953904Y-101926619D01*
X132477714Y-101926619D02*
X132477714Y-102926619D01*
X132096762Y-102593286D02*
X131906286Y-101926619D01*
X131715809Y-102402810D01*
X131525333Y-101926619D01*
X131334857Y-102593286D01*
X130525333Y-101926619D02*
X130525333Y-102450429D01*
X130572952Y-102545667D01*
X130668190Y-102593286D01*
X130858667Y-102593286D01*
X130953905Y-102545667D01*
X130525333Y-101974238D02*
X130620571Y-101926619D01*
X130858667Y-101926619D01*
X130953905Y-101974238D01*
X131001524Y-102069476D01*
X131001524Y-102164714D01*
X130953905Y-102259952D01*
X130858667Y-102307571D01*
X130620571Y-102307571D01*
X130525333Y-102355190D01*
X130192000Y-102593286D02*
X129811048Y-102593286D01*
X130049143Y-102926619D02*
X130049143Y-102069476D01*
X130001524Y-101974238D01*
X129906286Y-101926619D01*
X129811048Y-101926619D01*
X129049142Y-101926619D02*
X129049142Y-102450429D01*
X129096761Y-102545667D01*
X129191999Y-102593286D01*
X129382476Y-102593286D01*
X129477714Y-102545667D01*
X129049142Y-101974238D02*
X129144380Y-101926619D01*
X129382476Y-101926619D01*
X129477714Y-101974238D01*
X129525333Y-102069476D01*
X129525333Y-102164714D01*
X129477714Y-102259952D01*
X129382476Y-102307571D01*
X129144380Y-102307571D01*
X129049142Y-102355190D01*
M02*
