M48
;DRILL file {KiCad 4.0.6} date 11/10/17 16:27:52
;FORMAT={-:-/ absolute / metric / decimal}
FMAT,2
METRIC,TZ
T1C0.400
T2C0.600
T3C1.000
T4C3.000
%
G90
G05
M71
T1
X133.255Y-115.65
X133.255Y-116.92
X135.16Y-115.65
X135.16Y-116.92
T2
X127.54Y-119.46
X128.81Y-104.855
X130.08Y-109.935
X135.795Y-111.205
X138.97Y-116.92
T3
X128.81Y-106.76
X131.35Y-106.76
X131.35Y-119.46
X133.89Y-106.76
X133.89Y-119.46
X136.43Y-106.76
X136.43Y-119.46
X138.97Y-106.76
X138.97Y-119.46
X141.51Y-106.76
T4
X135.Y-100.
T0
M30
