G04 #@! TF.FileFunction,Copper,L1,Top,Signal*
%FSLAX46Y46*%
G04 Gerber Fmt 4.6, Leading zero omitted, Abs format (unit mm)*
G04 Created by KiCad (PCBNEW 4.0.6) date 11/10/17 16:27:50*
%MOMM*%
%LPD*%
G01*
G04 APERTURE LIST*
%ADD10C,0.100000*%
%ADD11C,0.300000*%
%ADD12C,2.000000*%
%ADD13R,1.550000X0.600000*%
%ADD14R,0.750000X1.200000*%
%ADD15O,1.000000X1.100000*%
%ADD16O,1.000000X1.000000*%
%ADD17R,1.200000X0.900000*%
%ADD18C,1.000000*%
%ADD19C,0.600000*%
%ADD20C,0.400000*%
G04 APERTURE END LIST*
D10*
D11*
X138684999Y-98711429D02*
X139161190Y-100044762D01*
X139637380Y-98711429D01*
X141446905Y-100044762D02*
X140304047Y-100044762D01*
X140875476Y-100044762D02*
X140875476Y-98044762D01*
X140685000Y-98330476D01*
X140494524Y-98520952D01*
X140304047Y-98616190D01*
X142304047Y-99854286D02*
X142399286Y-99949524D01*
X142304047Y-100044762D01*
X142208809Y-99949524D01*
X142304047Y-99854286D01*
X142304047Y-100044762D01*
X144304048Y-100044762D02*
X143161190Y-100044762D01*
X143732619Y-100044762D02*
X143732619Y-98044762D01*
X143542143Y-98330476D01*
X143351667Y-98520952D01*
X143161190Y-98616190D01*
X125905238Y-100044762D02*
X125905238Y-98044762D01*
X125905238Y-98997143D02*
X127048096Y-98997143D01*
X127048096Y-100044762D02*
X127048096Y-98044762D01*
X128762381Y-99949524D02*
X128571905Y-100044762D01*
X128190953Y-100044762D01*
X128000476Y-99949524D01*
X127905238Y-99759048D01*
X127905238Y-98997143D01*
X128000476Y-98806667D01*
X128190953Y-98711429D01*
X128571905Y-98711429D01*
X128762381Y-98806667D01*
X128857619Y-98997143D01*
X128857619Y-99187619D01*
X127905238Y-99378095D01*
X130571905Y-100044762D02*
X130571905Y-98997143D01*
X130476667Y-98806667D01*
X130286191Y-98711429D01*
X129905239Y-98711429D01*
X129714762Y-98806667D01*
X130571905Y-99949524D02*
X130381429Y-100044762D01*
X129905239Y-100044762D01*
X129714762Y-99949524D01*
X129619524Y-99759048D01*
X129619524Y-99568571D01*
X129714762Y-99378095D01*
X129905239Y-99282857D01*
X130381429Y-99282857D01*
X130571905Y-99187619D01*
X131238572Y-98711429D02*
X132000477Y-98711429D01*
X131524286Y-98044762D02*
X131524286Y-99759048D01*
X131619525Y-99949524D01*
X131810001Y-100044762D01*
X132000477Y-100044762D01*
D12*
X131350000Y-119460000D03*
X133890000Y-119460000D03*
X136430000Y-119460000D03*
X138970000Y-119460000D03*
X128810000Y-106760000D03*
X131350000Y-106760000D03*
X133890000Y-106760000D03*
X136430000Y-106760000D03*
X138970000Y-106760000D03*
X141510000Y-106760000D03*
D13*
X132460000Y-109935000D03*
X132460000Y-111205000D03*
X132460000Y-112475000D03*
X132460000Y-113745000D03*
X137860000Y-113745000D03*
X137860000Y-112475000D03*
X137860000Y-111205000D03*
X137860000Y-109935000D03*
D14*
X140875000Y-110255000D03*
X140875000Y-112155000D03*
D15*
X135160000Y-116920000D03*
D16*
X135160000Y-115650000D03*
D15*
X133255000Y-116920000D03*
D16*
X133255000Y-115650000D03*
D17*
X126440000Y-112475000D03*
X128640000Y-112475000D03*
X126440000Y-113745000D03*
X128640000Y-113745000D03*
X126440000Y-109935000D03*
X128640000Y-109935000D03*
X126440000Y-111205000D03*
X128640000Y-111205000D03*
D18*
X138970000Y-116920000D03*
X130080000Y-109935000D03*
X135795000Y-111205000D03*
X127540000Y-119460000D03*
X128810000Y-104855000D03*
D19*
X133255000Y-116920000D02*
X135160000Y-116920000D01*
X138970000Y-119460000D02*
X140875000Y-117555000D01*
X140875000Y-117555000D02*
X140875000Y-116285000D01*
X138970000Y-116920000D02*
X140240000Y-116920000D01*
X140240000Y-116920000D02*
X140875000Y-116285000D01*
X140875000Y-116285000D02*
X140875000Y-112155000D01*
X137860000Y-111205000D02*
X139925000Y-111205000D01*
X139925000Y-111205000D02*
X140875000Y-112155000D01*
X135160000Y-116920000D02*
X136430000Y-116920000D01*
X136430000Y-116920000D02*
X138970000Y-119460000D01*
X132460000Y-109935000D02*
X130080000Y-109935000D01*
X130080000Y-109935000D02*
X128640000Y-109935000D01*
D20*
X132620000Y-109935000D02*
X132460000Y-109935000D01*
D19*
X132460000Y-111205000D02*
X135795000Y-111205000D01*
X132460000Y-111205000D02*
X128640000Y-111205000D01*
X132460000Y-112475000D02*
X128640000Y-112475000D01*
X132460000Y-112475000D02*
X133890000Y-112475000D01*
X135160000Y-113745000D02*
X135160000Y-115650000D01*
X133890000Y-112475000D02*
X135160000Y-113745000D01*
X133255000Y-115650000D02*
X133255000Y-114540000D01*
X133255000Y-114540000D02*
X132460000Y-113745000D01*
X132460000Y-113745000D02*
X128640000Y-113745000D01*
X132620000Y-121365000D02*
X129445000Y-121365000D01*
X129445000Y-121365000D02*
X127540000Y-119460000D01*
X126440000Y-113745000D02*
X126440000Y-118360000D01*
X126440000Y-118360000D02*
X127540000Y-119460000D01*
X131350000Y-119460000D02*
X131350000Y-120095000D01*
X131350000Y-120095000D02*
X132620000Y-121365000D01*
X128810000Y-106760000D02*
X130715000Y-108665000D01*
X136590000Y-108665000D02*
X137860000Y-109935000D01*
X130715000Y-108665000D02*
X136590000Y-108665000D01*
X143415000Y-110250000D02*
X143415000Y-104855000D01*
X142460000Y-111205000D02*
X143415000Y-110250000D01*
X130080000Y-103585000D02*
X142145000Y-103585000D01*
X128810000Y-104855000D02*
X130080000Y-103585000D01*
X143415000Y-104855000D02*
X142145000Y-103585000D01*
X132620000Y-121365000D02*
X140875000Y-121365000D01*
X142460000Y-119780000D02*
X140875000Y-121365000D01*
X142460000Y-119780000D02*
X142460000Y-111205000D01*
X140875000Y-110255000D02*
X141510000Y-110255000D01*
X141510000Y-110255000D02*
X142460000Y-111205000D01*
X137860000Y-109935000D02*
X140555000Y-109935000D01*
X140555000Y-109935000D02*
X140875000Y-110255000D01*
X126440000Y-112475000D02*
X126440000Y-113745000D01*
X126440000Y-111205000D02*
X126440000Y-112475000D01*
X126440000Y-109935000D02*
X126440000Y-111205000D01*
X126440000Y-109935000D02*
X126440000Y-109130000D01*
X126440000Y-109130000D02*
X128810000Y-106760000D01*
M02*
